<svg xmlns="http://www.w3.org/2000/svg" viewBox="0 0 91.41 120.91"><defs><style>.cls-1{fill:#fff;}</style></defs><title>Ресурс 4</title><g id="Слой_2" data-name="Слой 2"><g id="trim_area" data-name="trim area"><circle class="cls-1" cx="60.28" cy="51.46" r="2.4"/><circle class="cls-1" cx="30.86" cy="51.46" r="2.4"/><path class="cls-1" d="M45.21,95.25a6.86,6.86,0,0,0,6.86-6.86H38.35A6.86,6.86,0,0,0,45.21,95.25Z"/><path class="cls-1" d="M47,48.59a14,14,0,0,0-28,0h4a10,10,0,0,1,20,0v21l2,2H51v-4H47Z"/><rect class="cls-1" x="53.03" y="44.4" width="16.22" height="4"/><path class="cls-1" d="M85,51.86H83.33V37.95a37.95,37.95,0,0,0-75.9,0V51.86h-1a6.44,6.44,0,0,0,0,12.88h1V83a37.95,37.95,0,0,0,75.9,0V64.73H85a6.44,6.44,0,0,0,0-12.88ZM79.33,61a11.25,11.25,0,0,0-9.44,11.08V82.24a8.86,8.86,0,0,1-7,8.66,17.79,17.79,0,0,0-35.31,0,8.88,8.88,0,0,1-7-8.67V72a11.26,11.26,0,0,0-9.11-11V55.12l.6-.37c.3-.6,7.26-14.73,8.38-29.69l1.26.94c7,5.31,23.13,17.59,57,5a34,34,0,0,1,.71,6.91V61ZM45.38,4A34,34,0,0,1,77.57,27.16c-32,12-47,.58-53.47-4.35-2.42-1.84-4-3.06-5.77-2.25s-1.81,2.8-1.86,3.67a79.32,79.32,0,0,1-5,21.63V38.55q0-.74,0-1.46h0A34,34,0,0,1,45.38,4ZM6.44,60.73a2.44,2.44,0,0,1,0-4.88h1v4.88Zm38.94,56.17A34,34,0,0,1,11.43,83V65.1A7.26,7.26,0,0,1,16.54,72V82.24A12.89,12.89,0,0,0,29.45,95.1l2-2A13.79,13.79,0,0,1,59,93.1l2,2A12.86,12.86,0,0,0,73.89,82.24V72.08a7.25,7.25,0,0,1,5.44-7V82.35q0,.74,0,1.46h0A34,34,0,0,1,45.38,116.91ZM85,60.73H83.33V55.86H85a2.44,2.44,0,0,1,0,4.88Z"/></g></g></svg>