<svg xmlns="http://www.w3.org/2000/svg" viewBox="0 0 159.15 149.04"><defs><style>.cls-1{fill:#fff;}</style></defs><title>Ресурс 5</title><g id="Слой_2" data-name="Слой 2"><g id="trim_area" data-name="trim area"><path class="cls-1" d="M90.55,51.62l.72,3.93c6.06-1.11,8.44,2.57,8.54,2.72l3.43-2.07C103.08,56,99.42,50,90.55,51.62Z"/><circle class="cls-1" cx="94.44" cy="60.3" r="2.4"/><circle class="cls-1" cx="65.02" cy="60.3" r="2.4"/><path class="cls-1" d="M87.1,81l-3.39-2.13a5.49,5.49,0,0,1-4.31,2.4,4.88,4.88,0,0,1-4-2.31l-3.49,1.95a8.92,8.92,0,0,0,7.52,4.36A9.57,9.57,0,0,0,87.1,81Z"/><path class="cls-1" d="M128.5,6a24.39,24.39,0,0,0-17.63,7.72C102.93,4.88,92,0,79.22,0A41.52,41.52,0,0,0,48.06,13.51C45.13,11.28,35.52,4.9,24.13,7,14.68,8.75,6.56,15.83,0,28.06l.95,2.77,21.42,9.58,2.58-.89c8.43-16,13.16-17.86,14.8-17.93a1.73,1.73,0,0,1,1.51.69l.51-.29a63.14,63.14,0,0,0-6.55,15.8h0c-.12.42-2.9,10.46.24,25.49a6.43,6.43,0,0,0,5.14,10.3h.74L41.42,92h0a37.71,37.71,0,0,0,3.31,15.31,3.95,3.95,0,1,0,3.51,6.2,37.91,37.91,0,0,0,62.49-.36,4,4,0,1,0,3.45-5.87l-.18,0a37.71,37.71,0,0,0,3.31-15.47V73.57h1.81A6.43,6.43,0,0,0,123.06,62c.42-3.89,1.57-16.51-.29-24.43a59.47,59.47,0,0,0-5.66-15,6.44,6.44,0,0,1,4.35-.08c3,1,7.4,4.76,11.18,16.93l2.8,1.2,23-11.38.71-3C149,12.91,138.68,6.09,128.5,6ZM43.06,111.21l2,0a0,0,0,0,1,0,0Zm73.09,0-2,0a0,0,0,0,1,0,0ZM118,13.11h-.13L118,13S118,13.08,118,13.11Zm2.23,5.08-.25,0c-.87-2.2-1.7-4.39-2-5.16.49-.31,1-.62,1.58-.91ZM43.66,19l0,0A22.4,22.4,0,0,1,44,15.54c.6.39,1.1.74,1.49,1Q44.53,17.76,43.66,19Zm-.33-3.89a1.3,1.3,0,0,1-.54,0l.08-.23Zm-3.65,2.45a7,7,0,0,0-1.75.28V12.44c.88.34,1.71.71,2.48,1.09A14.65,14.65,0,0,0,39.68,17.59ZM22.3,36,4.57,28.07c5.74-9.93,12.54-15.69,20.25-17.12a22.44,22.44,0,0,1,9.11.26V20h.17C30.52,22.76,26.61,28.07,22.3,36ZM40.6,69.57a2.44,2.44,0,0,1,0-4.88h.7l0,4.88Zm72.69,23.09h0a33.94,33.94,0,0,1-67.88-.86h0l-.13-27.72a54.22,54.22,0,0,0,13.52-6.3l.81.48s2.36-3.84,8.53-2.7l.72-3.93a16.63,16.63,0,0,0-2.13-.24A58.52,58.52,0,0,0,81.27,26.31c5.27,6,16.85,17.62,32.05,23.16V91.19Q113.32,91.93,113.29,92.66Zm5.84-23.09h-1.81V64.69h1.81a2.44,2.44,0,1,1,0,4.88Zm0-8.87h-1.85V46.39h-.64c-17.28-5.51-30.4-20.23-34.18-24.85a54.52,54.52,0,0,0,1.28-8.82l-4-.12a52.47,52.47,0,0,1-1.47,9.81l-.14.1.08.11c-2.9,11.95-11.27,31.11-35.48,38v0H40.6a6.41,6.41,0,0,0-1.52.19c-2.42-13.12,0-21.91,0-22l-1.92-.55,1.93.52C45,17,60,4,79.22,4c20,0,34.5,12.58,39.66,34.53C120.46,45.24,119.62,56.21,119.18,60.7Zm-5.74-43.87a17.24,17.24,0,0,1,1.23-1.25c.28.76.67,1.8,1.23,3.21-.32.11-.6.23-.85.35C114.52,18.34,114,17.57,113.43,16.83ZM135.74,36c-3-8.72-6.83-14.29-11.39-16.62l-.9-8.77a18.43,18.43,0,0,1,5-.64c8.41.09,17.16,5.73,26,16.77Z"/><path class="cls-1" d="M79.73,132.79a8.13,8.13,0,1,0,8.13,8.13A8.13,8.13,0,0,0,79.73,132.79Zm0,12.25a4.13,4.13,0,1,1,4.13-4.12A4.13,4.13,0,0,1,79.73,145Z"/><path class="cls-1" d="M95.12,130a6.89,6.89,0,1,0,6.89,6.89A6.9,6.9,0,0,0,95.12,130Zm0,9.78A2.89,2.89,0,1,1,98,136.93,2.89,2.89,0,0,1,95.12,139.82Z"/><path class="cls-1" d="M108.17,125A5.93,5.93,0,1,0,114.1,131,5.94,5.94,0,0,0,108.17,125Zm0,7.87A1.93,1.93,0,1,1,110.1,131,1.94,1.94,0,0,1,108.17,132.9Z"/><path class="cls-1" d="M114.11,116a4.87,4.87,0,1,0,4.87,4.87A4.88,4.88,0,0,0,114.11,116Zm0,5.75a.87.87,0,1,1,.87-.87A.87.87,0,0,1,114.11,121.78Z"/><path class="cls-1" d="M64.09,130A6.89,6.89,0,1,0,71,136.93,6.9,6.9,0,0,0,64.09,130Zm0,9.78A2.89,2.89,0,1,1,67,136.93,2.89,2.89,0,0,1,64.09,139.82Z"/><path class="cls-1" d="M51,125A5.93,5.93,0,1,0,57,131,5.94,5.94,0,0,0,51,125Zm0,7.87A1.93,1.93,0,1,1,53,131,1.94,1.94,0,0,1,51,132.9Z"/><path class="cls-1" d="M50,120.91a4.87,4.87,0,1,0-4.87,4.87A4.88,4.88,0,0,0,50,120.91Zm-4.87.87a.87.87,0,1,1,.87-.87A.87.87,0,0,1,45.1,121.78Z"/><path class="cls-1" d="M80.68,103.68l-.25,2-.26,2a13.68,13.68,0,0,0,1.65.09c2.79,0,8.52-.65,12.49-5.46l-3.09-2.54C87.33,104.44,80.74,103.69,80.68,103.68Z"/></g></g></svg>