<svg xmlns="http://www.w3.org/2000/svg" viewBox="0 0 112.09 134.08"><defs><style>.cls-1{fill:#fff;}</style></defs><title>Ресурс 6</title><g id="Слой_2" data-name="Слой 2"><g id="trim_area" data-name="trim area"><circle class="cls-1" cx="70.49" cy="64.63" r="2.4"/><circle class="cls-1" cx="41.07" cy="64.63" r="2.4"/><polygon class="cls-1" points="56.82 87.01 61.7 83.93 59.57 80.55 55.8 82.92 52.45 80.6 50.17 83.89 54.61 86.97 56.82 87.01"/><path class="cls-1" d="M44.2,58.89,44.92,55c-8.87-1.63-12.53,4.34-12.69,4.59l3.43,2.07C35.76,61.45,38.15,57.77,44.2,58.89Z"/><path class="cls-1" d="M66.59,50l.72,3.93c6.05-1.11,8.44,2.57,8.54,2.72l3.43-2.07C79.13,54.29,75.45,48.32,66.59,50Z"/><path class="cls-1" d="M55.82,0c-26,0-45.48,17.18-53.58,47.24-.32,1.45-7.62,36,6,80a4.33,4.33,0,0,0,2.23,2.88c1.8.83,3.75,0,6.44-1.15a46.08,46.08,0,0,1,14-3.87,37.85,37.85,0,0,0,48.8.07,45,45,0,0,1,14.87,4.42c1.94.9,3.49,1.62,4.89,1.62a3.64,3.64,0,0,0,1.46-.29,4.58,4.58,0,0,0,2.34-2.88c15.43-45.49,5.85-79.84,5.44-81.24C100.8,17.06,81.49,0,55.82,0ZM21.47,96.13h0l-.13-43.78c3-1.7,13.35-7.34,21-7.34l1.92-1.42,2.46-8.13L49.43,43,51,44.31c.26,0,25.55,4.28,38.38,8.81V95.52q0,.73,0,1.46h0a33.94,33.94,0,0,1-67.88-.86ZM12.37,77a4.7,4.7,0,0,1,.26-.48,6.44,6.44,0,0,0,1.53.91c0,.11-.07.21-.12.33-.65,1.41-1.61,1.88-1.84,1.85A2.82,2.82,0,0,1,12.37,77Zm5-3.06h-.76a2.44,2.44,0,0,1,0-4.88h.74Zm80.84,5.67c-.23,0-1.18-.41-1.83-1.79a6.38,6.38,0,0,0,1.72-.6A2.77,2.77,0,0,1,98.24,79.57ZM95.18,73.9H93.37V69h1.81a2.44,2.44,0,1,1,0,4.88Zm4.38,52.87a3.11,3.11,0,0,1-.19.45,18.19,18.19,0,0,1-3-1.23,49.49,49.49,0,0,0-12.89-4.3,37.8,37.8,0,0,0,9.93-25.56V80.51a6.1,6.1,0,0,0,4.86,3.06,4,4,0,0,0,1.67-.36,4.51,4.51,0,0,0,2.48-3.56,7.79,7.79,0,0,0-.69-4.35,8.65,8.65,0,0,0-.66-1.17A6.42,6.42,0,0,0,95.18,65H93.37V51.72h-2l.71-1.87c-11.37-4.34-33.86-8.36-39.28-9.3L48.44,28.38l-3.8.1L40.85,41.06c-9.88.71-21.9,8-22.43,8.36l1,1.56H17.33l0,14h-.73a6.42,6.42,0,0,0-6.27,7.89A8.3,8.3,0,0,0,8.74,75.3,7.79,7.79,0,0,0,8,79.65a4.51,4.51,0,0,0,2.48,3.56,4,4,0,0,0,1.67.36,6.34,6.34,0,0,0,5.23-3.69l0,16.42h0a37.8,37.8,0,0,0,9.83,25.29,51,51,0,0,0-11.92,3.73,18.37,18.37,0,0,1-3.13,1.16,2.81,2.81,0,0,1-.15-.4c-13.34-42.93-6-77.63-6-77.89C16.48,9.74,41.7,4,55.82,4c23.73,0,41.62,16,49.11,43.89C105,48.23,114.58,82.46,99.55,126.77Z"/><path class="cls-1" d="M59.08,99.29c-1.81,0-2,1.61-3.66,1.61s-2.15-1.61-3.59-1.61c-2.19,0-9.27,2.24-9.27,2.24l.2.08-.2,0c0,1.79,5.33,7.86,12.86,7.86,7.22,0,12.86-6.07,12.86-7.86l-.19,0,.19-.08S61.27,99.29,59.08,99.29Z"/></g></g></svg>