<svg xmlns="http://www.w3.org/2000/svg" viewBox="0 0 91.41 134.45"><defs><style>.cls-1{fill:#fff;}</style></defs><title>Ресурс 7</title><g id="Слой_2" data-name="Слой 2"><g id="trim_area" data-name="trim area"><path class="cls-1" d="M85,65.4H83.16V51.49a38.21,38.21,0,0,0-28-36.62l2.43-6.76L57.3,6.19C57.09,5.93,52.15-.08,45,0S33,5.71,32.8,5.95L32.47,8l2.8,6.87a37.9,37.9,0,0,0-28,36.62V65.4H6.44a6.44,6.44,0,1,0,0,12.88h.83V96.5a37.95,37.95,0,0,0,75.9,0V78.27H85A6.44,6.44,0,0,0,85,65.4ZM45,4h.09c3.85,0,7,2.57,8.3,3.9l-2.89,8L48.69,29.6H42.2L40.12,16.32,40,15.87,36.67,7.71C38.09,6.41,41.2,4,45,4ZM6.44,74.27a2.44,2.44,0,1,1,0-4.88h.83v4.88Zm38.77,56.17A34,34,0,0,1,11.26,96.5V52.09q0-.73,0-1.46h0A33.9,33.9,0,0,1,36.44,18.69l2.07,13.22,2,1.69h10l2-1.74,1.75-13.12a34.18,34.18,0,0,1,25,32.75V95.89q0,.73,0,1.46h0A34,34,0,0,1,45.21,130.45ZM85,74.27H83.16V69.4H85a2.44,2.44,0,0,1,0,4.88Z"/><circle class="cls-1" cx="60.28" cy="65" r="2.4"/><circle class="cls-1" cx="30.86" cy="65" r="2.4"/><path class="cls-1" d="M45.21,108.79a6.86,6.86,0,0,0,6.86-6.86H38.35A6.86,6.86,0,0,0,45.21,108.79Z"/><polygon class="cls-1" points="50.95 85.12 50.95 81.12 47.03 81.12 47.03 62.13 43.03 62.13 43.03 83.12 45.03 85.12 50.95 85.12"/><path class="cls-1" d="M57.48,48.7l.75,3.93c.3-.06,7.26-1.29,9,6.16l3.89-.93C69,49,61.27,48,57.48,48.7Z"/><path class="cls-1" d="M31.84,52.64l.36-2,.37-2C28.77,48,21,49,18.9,57.86l3.89.93A7.64,7.64,0,0,1,31.84,52.64Z"/></g></g></svg>