<svg xmlns="http://www.w3.org/2000/svg" viewBox="0 0 99.61 135.12"><defs><style>.cls-1{fill:#fff;}</style></defs><title>Ресурс 8</title><g id="Слой_2" data-name="Слой 2"><g id="trim_area" data-name="trim area"><circle class="cls-1" cx="60.28" cy="65.68" r="2.4"/><circle class="cls-1" cx="30.86" cy="65.68" r="2.4"/><path class="cls-1" d="M45.21,109.47a6.86,6.86,0,0,0,6.86-6.86H38.35A6.86,6.86,0,0,0,45.21,109.47Z"/><path class="cls-1" d="M45,85.87h0a12.24,12.24,0,0,1,5,1.4L52,83.77a17.5,17.5,0,0,0-5-1.72V73.81H43v8.25a20.66,20.66,0,0,0-4.9,1.58l1.73,3.61A14.66,14.66,0,0,1,45,85.87Z"/><path class="cls-1" d="M96.38,27.06c-4.32-3.31-13.48-5.55-20.1-5.81-3-8.52-8.14-14.59-15.19-18.06C51-1.76,39.48.11,34.8,1.79,17.63,8,8.41,22.3,7.35,44.43l-.08.08h0v0h0v3.4h0v1h0V66.07H6.44a6.44,6.44,0,0,0,0,12.88h.82V97.17a37.95,37.95,0,1,0,75.9,0V78.95H85a6.44,6.44,0,1,0,0-12.88H83.16V48c4.07-1.9,15.59-7.83,16.4-14.41C99.77,31.87,99.39,29.36,96.38,27.06ZM46.4,4A29.34,29.34,0,0,1,59.33,6.79c5.73,2.82,10,7.71,12.71,14.56a57.34,57.34,0,0,0-22,6.56L35.15,35.67,32.08,37c-.39-6.44-.73-22.78,4.72-31.62A33,33,0,0,1,46.4,4ZM31.21,7.73c-4.17,10.9-3.41,26.1-3,30.9C23.92,40.43,18,42.95,11.29,45.87,11.9,26.85,18.46,14.32,31.21,7.73ZM6.44,74.95a2.44,2.44,0,0,1,0-4.88h.82v4.88Zm38.77,56.17A34,34,0,0,1,11.26,97.17v-.6h0V50.25c10.44-4.53,19.06-8.19,23.08-9.89,3.83.12,32.42,1.2,44.83,7.57V96.57q0,.73,0,1.46h0A34,34,0,0,1,45.21,131.12ZM85,70.07a2.44,2.44,0,1,1,0,4.88H83.16V70.07Zm10.62-37c-.44,3.6-8.39,8.67-14.39,11.4-9.92-5.19-28.75-7.09-39.4-7.77l10.06-5.25c7.93-4.07,15.67-6.16,23-6.22h.2c5.87,0,15.11,2.11,18.89,5C95.58,31.49,95.67,32.46,95.59,33.08Z"/><path class="cls-1" d="M56.36,53.8l1,3.87s4.75-1.18,7.73,1.59l2.72-2.93C63.23,52,56.64,53.72,56.36,53.8Z"/><path class="cls-1" d="M22.51,56.32l2.72,2.93c3-2.77,7.69-1.6,7.73-1.59l1-3.87C33.71,53.72,27.12,52,22.51,56.32Z"/></g></g></svg>